<?xml version="1.0" encoding="UTF-8"?>
<svg id="Flattened" xmlns="http://www.w3.org/2000/svg" version="1.1" viewBox="0 0 3000 812.976378">
  <!-- Generator: Adobe Illustrator 30.1.0, SVG Export Plug-In . SVG Version: 2.1.1 Build 136)  -->
  <defs>
    <style>
      .st0 {
        fill: #fff;
      }
    </style>
  </defs>
  <path id="Swoop" class="st0" d="M1520.8690647,2.7751694C941.5327281,2.7751694,0,123.9285465,0,432.2836656c0,207.0169467,431.124501,313.562034,645.4811971,353.7424013,7.489527,1.4038841,10.1038854-9.5016504,2.8045703-11.6888642-214.2810292-64.208549-473.2646714-179.5296264-473.2646714-335.2531066,0-176.5327721,479.481413-385.7903667,1345.3071005-385.7903667,1074.8643636,0,1415.6106013,263.8466581,1415.6106013,385.5978948,0,74.2604453-49.4562068,134.3153783-82.7609854,166.3383811-4.9593873,4.7685191.7120276,12.7755903,6.8699976,9.7074146,51.6840614-25.7513077,139.9521899-84.9935625,139.9521899-189.2615294C3000,134.568315,2100.2052177,2.7751694,1520.8690647,2.7751694Z"/>
  <g>
    <path class="st0" d="M2124.0742188,514.9058117c0-10.5585938,8.359375-18.9179688,19.3583984-18.9179688,10.5585938,0,18.9179688,8.359375,18.9179688,18.9179688v283.3320312c0,3.5195312-2.6396484,5.7197266-5.71875,5.7197266h-26.8378906c-3.0800781,0-5.7197266-2.2001953-5.7197266-5.7197266v-283.3320312Z"/>
    <path class="st0" d="M2350.6533203,532.0640148v266.1738281c0,3.5195312-2.6396484,5.7197266-5.7197266,5.7197266h-26.8369141c-3.0800781,0-5.7197266-2.2001953-5.7197266-5.7197266v-266.1738281h-81.3925781c-9.6787109,0-18.0380859-7.9189453-18.0380859-18.0380859s8.359375-18.0380859,18.0380859-18.0380859h201.0605469c10.1191406,0,18.0380859,7.9189453,18.0380859,18.0380859,0,10.5595703-7.9189453,18.0380859-18.0380859,18.0380859h-81.3916016Z"/>
    <path class="st0" d="M2680.1835938,515.7856945c13.1982422,10.5595703,13.1982422,26.8378906,4.8388672,32.9970703-3.0791016,2.2001953-6.5986328,3.5195312-10.1191406,3.5195312-6.5986328,0-13.1982422-3.9599609-20.2373047-9.2392578-17.1582031-13.6386719-40.4765625-18.9179688-62.9140625-18.9179688-46.6357422,0-68.1933594,25.0771484-68.1933594,50.5947266,0,79.6328125,178.1826172,31.2373047,178.1826172,146.9462891,0,44.4355469-36.0761719,89.3105469-108.6689453,89.3105469-40.9160156,0-75.6728516-14.078125-103.8300781-37.8359375-13.6386719-10.5585938-13.1992188-26.8378906-4.8398438-32.9970703,3.0800781-2.6396484,6.5996094-3.5195312,10.1191406-3.5195312,6.1591797,0,13.1992188,3.5195312,19.7978516,9.2392578,21.9980469,18.9179688,47.9550781,29.4765625,78.7529297,29.4765625,47.0751953,0,70.3925781-26.8369141,70.3925781-53.6738281,0-80.0722656-178.1826172-28.5976562-178.1826172-146.9462891,0-43.1152344,34.3164062-85.7910156,106.4697266-85.7910156,32.5566406,0,64.6738281,7.9189453,88.4316406,26.8369141Z"/>
  </g>
  <g>
    <path class="st0" d="M597.7871094,691.2710461c-4.3691406,0-8.1142578-3.1210938-8.1142578-8.1142578v-401.9892578c0-14.980957,11.8598633-26.8408203,27.4648438-26.8408203h141.0708008c91.7583008,0,137.3251953,58.675293,137.3251953,116.7265625,0,35.5795898-16.8535156,71.1591797-49.9365234,93.6308594,49.3125,19.9746094,73.6567383,63.6689453,73.6567383,107.3632812,0,59.9238281-44.9428711,119.2236328-136.7011719,119.2236328h-184.765625ZM643.9785156,448.4546398h112.3574219c56.8027344,0,85.5161133-36.2041016,85.5161133-71.7836914s-28.0893555-71.159668-85.5161133-71.159668h-112.3574219v142.9433594ZM643.9785156,640.0864758h136.7011719c56.8027344,0,84.8920898-37.453125,84.8920898-74.28125,0-36.2041016-28.0893555-72.4072266-84.8920898-72.4072266h-136.7011719v146.6884766Z"/>
    <path class="st0" d="M1288.1611328,683.7808117c0,4.3691406-3.7451172,7.4902344-7.4907227,7.4902344h-36.2036133c-3.7456055,0-7.4907227-3.1210938-7.4907227-7.4902344v-53.6816406c-23.0957031,43.0703125-67.4140625,69.9111328-122.3442383,69.9111328-90.5102539,0-154.1791992-69.2871094-154.1791992-167.2880859,0-97.3759766,63.6689453-166.6625977,154.1791992-166.6625977,54.9301758,0,99.2485352,26.8408203,122.3442383,69.2866211v-44.3183594c0-14.3569336,12.484375-24.9682617,25.5922852-24.9682617,14.3569336,0,25.5927734,11.8598633,25.5927734,25.5922852v292.1289062ZM1124.6191406,412.2505383c-66.7900391,0-114.2299805,49.3125-114.2299805,120.4716797,0,71.7841797,47.4399414,121.0966797,114.2299805,121.0966797,66.1655273,0,113.6054688-49.3125,113.6054688-121.0966797,0-71.1591797-47.4399414-120.4716797-113.6054688-120.4716797Z"/>
    <path class="st0" d="M1544.0869141,412.87505c0,11.8598633-8.7392578,21.847168-21.2236328,21.847168-5.6171875,0-11.2353516-1.8725586-17.4775391-5.6181641-18.7260742-10.6113281-39.9492188-16.8535156-63.6689453-16.8535156-34.331543,0-53.0576172,19.3505859-53.0576172,41.8222656,0,68.0380859,167.2871094,37.4521484,167.2871094,152.9306641,0,54.3056641-41.8212891,94.2548828-114.2294922,94.2548828-34.9555664,0-66.7900391-6.2421875-94.2553711-23.0957031-9.9873047-6.8662109-14.980957-15.6054688-14.980957-23.7197266,0-11.8603516,9.3632812-21.8476562,22.4716797-21.8476562,4.9936523,0,11.2358398,1.8730469,18.1020508,5.6181641,19.9746094,11.2353516,43.0703125,16.8535156,68.6625977,16.8535156,42.4462891,0,64.2929688-23.7197266,64.2929688-46.8154297,0-74.9042969-167.2871094-43.6943359-167.2871094-152.9306641,0-51.1845703,37.4526367-89.2612305,102.9941406-89.2612305,24.9682617,0,102.3701172,10.6113281,102.3701172,46.8154297Z"/>
    <path class="st0" d="M1631.4765625,248.7085461c18.1015625,0,33.0830078,15.6054688,33.0830078,33.7070312,0,18.7265625-14.9814453,33.7075195-33.0830078,33.7075195-19.3505859,0-34.3310547-14.980957-34.3310547-33.7075195,0-18.1015625,14.9804688-33.7070312,34.3310547-33.7070312ZM1605.2597656,392.2759289c0-13.7324219,11.8603516-25.5922852,26.2167969-25.5922852,13.7324219,0,24.96875,11.8598633,24.96875,25.5922852v291.5048828c0,4.3691406-3.1210938,7.4902344-7.4912109,7.4902344h-36.2041016c-3.7451172,0-7.4902344-3.1210938-7.4902344-7.4902344v-291.5048828Z"/>
    <path class="st0" d="M1878.6630859,366.0596203c34.3310547,0,64.2929688,6.8662109,91.7578125,23.0952148,9.9873047,6.8666992,14.9814453,15.6054688,14.9814453,23.7202148,0,11.8598633-9.3632812,21.847168-22.4716797,21.847168-4.9941406,0-11.2353516-1.8725586-18.1025391-5.6181641-19.3496094-11.2353516-41.1972656-16.8535156-66.1650391-16.8535156-66.1660156,0-113.6064453,49.3125-113.6064453,120.4716797,0,70.5361328,47.4404297,119.8476562,113.6064453,119.8476562,24.9677734,0,47.4394531-5.6171875,66.1650391-16.8535156,6.8671875-3.7451172,13.1083984-4.9931641,18.1025391-4.9931641,13.1083984,0,22.4716797,9.9873047,22.4716797,21.2226562,0,36.828125-81.1474609,46.8154297-106.7392578,46.8154297-95.5039062,0-163.5419922-68.6621094-163.5419922-166.0390625,0-97.3759766,68.0380859-166.6625977,163.5419922-166.6625977Z"/>
  </g>
</svg>